<svg version="1.1" id="Layer_1" xmlns="http://www.w3.org/2000/svg" xmlns:xlink="http://www.w3.org/1999/xlink" x="0px" y="0px"
	 width="100%" viewBox="0 0 292 250" enable-background="new 0 0 292 250" xml:space="preserve">
<path fill="#000000" opacity="1.000000" stroke="none" 
	d="
M207.000000,251.000000 
	C138.000015,251.000000 69.500015,251.000000 1.000018,251.000000 
	C1.000012,167.666687 1.000012,84.333366 1.000006,1.000041 
	C98.333305,1.000027 195.666611,1.000027 292.999939,1.000014 
	C292.999939,84.333290 292.999939,167.666580 292.999969,250.999939 
	C264.500000,251.000000 236.000000,251.000000 207.000000,251.000000 
M136.309128,238.127563 
	C134.639877,239.885727 134.641861,240.981735 137.435394,240.980911 
	C143.068405,240.979248 148.701416,240.980423 154.502075,240.980423 
	C157.034698,234.117889 159.545074,227.428406 161.971786,220.708694 
	C164.463776,213.808289 166.874008,206.878372 169.859222,199.494614 
	C170.346451,197.761581 170.644043,195.945450 171.359604,194.312469 
	C172.943314,190.698196 173.981598,186.169022 179.992966,188.102386 
	C177.073471,195.884766 174.000168,203.628342 171.264740,211.489502 
	C168.261002,220.121689 165.493622,228.839584 162.856369,237.590393 
	C162.592789,238.465027 163.879517,240.762787 164.556320,240.809402 
	C168.867676,241.106430 173.218338,241.103378 177.535721,240.851135 
	C178.605408,240.788635 180.056366,239.662094 180.547791,238.645538 
	C182.382660,234.850021 184.044159,230.952820 185.494461,226.992615 
	C189.829636,215.154861 194.134064,203.303772 198.247498,191.387787 
	C200.289627,185.472061 203.361542,181.363800 209.563110,178.571777 
	C226.978241,170.731201 238.427811,157.267014 242.931900,138.490540 
	C244.117096,133.549805 246.604233,129.727890 249.572327,125.743263 
	C254.678635,118.888069 260.652863,112.067513 258.810944,102.999779 
	C254.144089,102.999779 249.822586,102.887688 245.510452,103.040466 
	C242.783096,103.137100 241.721329,102.251877 240.713348,99.455307 
	C235.444382,84.836929 227.189041,72.068901 216.403992,60.779259 
	C205.759689,49.636955 193.997971,39.933041 180.241501,33.174316 
	C169.938431,28.112293 159.071686,23.908503 148.058670,20.675869 
	C139.861191,18.269674 130.991241,18.242130 122.485962,16.776848 
	C108.782791,14.416071 95.446320,16.498186 82.670868,20.960850 
	C74.428337,23.840092 66.532219,28.236879 59.193188,33.041630 
	C50.317570,38.852356 44.681984,47.807690 41.103973,57.626392 
	C38.919647,63.620583 37.410698,69.614563 31.902645,73.625496 
	C28.954411,75.772377 26.288334,78.306747 23.494925,80.666245 
	C23.739792,81.274666 23.984661,81.883087 24.229530,82.491516 
	C26.340088,82.991585 28.434170,83.818161 30.564535,83.925652 
	C35.415325,84.170395 37.434235,86.432617 38.061722,91.321587 
	C39.490376,102.452774 43.290390,112.895790 49.012150,122.574028 
	C56.886620,135.893509 67.079781,147.111755 79.184502,156.795441 
	C93.733330,168.434357 109.925797,176.772034 127.676437,182.023468 
	C136.216034,184.549881 145.047379,186.090179 154.139328,188.166718 
	C150.839325,197.118286 147.329575,206.237335 144.123734,215.461990 
	C141.561462,222.834747 139.369019,230.335999 136.309128,238.127563 
z"/>
<path fill="#2FCC42" opacity="1.000000" stroke="none" 
	d="
M137.012421,237.780228 
	C139.369019,230.335999 141.561462,222.834747 144.123734,215.461990 
	C147.329575,206.237335 150.839325,197.118286 154.139328,188.166718 
	C145.047379,186.090179 136.216034,184.549881 127.676437,182.023468 
	C109.925797,176.772034 93.733330,168.434357 79.184502,156.795441 
	C67.079781,147.111755 56.886620,135.893509 49.012150,122.574028 
	C43.290390,112.895790 39.490376,102.452774 38.061722,91.321587 
	C37.434235,86.432617 35.415325,84.170395 30.564535,83.925652 
	C28.434170,83.818161 26.340088,82.991585 24.229530,82.491516 
	C23.984661,81.883087 23.739792,81.274666 23.494925,80.666245 
	C26.288334,78.306747 28.954411,75.772377 31.902645,73.625496 
	C37.410698,69.614563 38.919647,63.620583 41.103973,57.626392 
	C44.681984,47.807690 50.317570,38.852356 59.193188,33.041630 
	C66.532219,28.236879 74.428337,23.840092 82.670868,20.960850 
	C95.446320,16.498186 108.782791,14.416071 122.485962,16.776848 
	C130.991241,18.242130 139.861191,18.269674 148.058670,20.675869 
	C159.071686,23.908503 169.938431,28.112293 180.241501,33.174316 
	C193.997971,39.933041 205.759689,49.636955 216.403992,60.779259 
	C227.189041,72.068901 235.444382,84.836929 240.713348,99.455307 
	C241.721329,102.251877 242.783096,103.137100 245.510452,103.040466 
	C249.822586,102.887688 254.144089,102.999779 258.810944,102.999779 
	C260.652863,112.067513 254.678635,118.888069 249.572327,125.743263 
	C246.604233,129.727890 244.117096,133.549805 242.931900,138.490540 
	C238.427811,157.267014 226.978241,170.731201 209.563110,178.571777 
	C203.361542,181.363800 200.289627,185.472061 198.247498,191.387787 
	C194.134064,203.303772 189.829636,215.154861 185.494461,226.992615 
	C184.044159,230.952820 182.382660,234.850021 180.547791,238.645538 
	C180.056366,239.662094 178.605408,240.788635 177.535721,240.851135 
	C173.218338,241.103378 168.867676,241.106430 164.556320,240.809402 
	C163.879517,240.762787 162.592789,238.465027 162.856369,237.590393 
	C165.493622,228.839584 168.261002,220.121689 171.264740,211.489502 
	C174.000168,203.628342 177.073471,195.884766 179.992966,188.102386 
	C173.981598,186.169022 172.943314,190.698196 171.359604,194.312469 
	C170.644043,195.945450 170.346451,197.761581 169.253082,199.864685 
	C167.271927,202.815201 165.611755,205.286530 164.575058,207.996368 
	C161.384735,216.335617 158.541153,224.807449 155.356354,233.148926 
	C152.468170,240.713516 143.955887,242.777618 137.012421,237.780228 
z"/>
<path fill="#4BBD59" opacity="1.000000" stroke="none" 
	d="
M136.660782,237.953888 
	C143.955887,242.777618 152.468170,240.713516 155.356354,233.148926 
	C158.541153,224.807449 161.384735,216.335617 164.575058,207.996368 
	C165.611755,205.286530 167.271927,202.815201 168.983459,200.098068 
	C166.874008,206.878372 164.463776,213.808289 161.971786,220.708694 
	C159.545074,227.428406 157.034698,234.117889 154.502075,240.980423 
	C148.701416,240.980423 143.068405,240.979248 137.435394,240.980911 
	C134.641861,240.981735 134.639877,239.885727 136.660782,237.953888 
z"/>
</svg>